<svg width="258" height="70" viewBox="0 0 258 70" fill="none" xmlns="http://www.w3.org/2000/svg">
<path d="M0.47112 36.1928L19.9701 19.8979L1.39087 4.2121C-1.11088 1.40999 1.45219 0.303354 3.04645 0.100302H15.3713C16.6957 -0.265192 18.0079 0.455642 18.4985 0.861746L38.9172 17.7658C40.6832 18.9841 39.8983 21.1162 39.2851 22.0299L18.8664 38.934C18.2777 39.665 16.659 39.9492 15.9231 40H2.86251C-0.669387 39.5127 -0.203373 37.2588 0.47112 36.1928Z" fill="#1AE5D6"/>
<path d="M56.8487 2.63636V39H49.1605V2.63636H56.8487ZM70.5961 23.233V39H63.0321V11.7273H70.2409V16.5391H70.5605C71.1642 14.9529 72.1763 13.6982 73.5968 12.7749C75.0172 11.8397 76.7395 11.3722 78.7637 11.3722C80.6576 11.3722 82.3089 11.7865 83.7175 12.6151C85.1261 13.4437 86.2211 14.6274 87.0023 16.1662C87.7836 17.6932 88.1742 19.5161 88.1742 21.6349V39H80.6103V22.9844C80.6221 21.3153 80.196 20.0133 79.3319 19.0781C78.4677 18.1312 77.2781 17.6577 75.763 17.6577C74.745 17.6577 73.8453 17.8767 73.0641 18.3146C72.2947 18.7526 71.691 19.3918 71.253 20.2322C70.8269 21.0608 70.6079 22.0611 70.5961 23.233ZM118.585 11.7273L109.05 39H100.528L90.9929 11.7273H98.983L104.647 31.2408H104.931L110.577 11.7273H118.585ZM134.006 39.5327C131.201 39.5327 128.786 38.9645 126.762 37.8281C124.749 36.6799 123.199 35.0582 122.11 32.9631C121.021 30.8561 120.476 28.3643 120.476 25.4879C120.476 22.6825 121.021 20.2204 122.11 18.1016C123.199 15.9827 124.732 14.3314 126.708 13.1477C128.697 11.964 131.029 11.3722 133.704 11.3722C135.503 11.3722 137.178 11.6622 138.729 12.2422C140.292 12.8104 141.653 13.6686 142.813 14.8168C143.985 15.965 144.896 17.4091 145.547 19.1491C146.198 20.8774 146.524 22.9015 146.524 25.2216V27.299H123.495V22.6115H139.404C139.404 21.5225 139.167 20.5578 138.694 19.7173C138.22 18.8769 137.563 18.2199 136.723 17.7464C135.894 17.2611 134.929 17.0185 133.828 17.0185C132.68 17.0185 131.662 17.2848 130.775 17.8175C129.899 18.3383 129.212 19.0426 128.715 19.9304C128.218 20.8063 127.963 21.7829 127.951 22.8601V27.3168C127.951 28.6662 128.2 29.8321 128.697 30.8146C129.206 31.7971 129.922 32.5547 130.846 33.0874C131.769 33.62 132.864 33.8864 134.13 33.8864C134.971 33.8864 135.74 33.768 136.439 33.5312C137.137 33.2945 137.735 32.9394 138.232 32.4659C138.729 31.9924 139.108 31.4124 139.368 30.7259L146.364 31.1875C146.009 32.8684 145.281 34.3362 144.18 35.5909C143.091 36.8338 141.682 37.8045 139.954 38.5028C138.238 39.1894 136.255 39.5327 134.006 39.5327ZM159.024 23.233V39H151.46V11.7273H158.669V16.5391H158.988C159.592 14.9529 160.604 13.6982 162.025 12.7749C163.445 11.8397 165.167 11.3722 167.191 11.3722C169.085 11.3722 170.737 11.7865 172.145 12.6151C173.554 13.4437 174.649 14.6274 175.43 16.1662C176.211 17.6932 176.602 19.5161 176.602 21.6349V39H169.038V22.9844C169.05 21.3153 168.624 20.0133 167.76 19.0781C166.895 18.1312 165.706 17.6577 164.191 17.6577C163.173 17.6577 162.273 17.8767 161.492 18.3146C160.722 18.7526 160.119 19.3918 159.681 20.2322C159.255 21.0608 159.036 22.0611 159.024 23.233ZM197.07 11.7273V17.4091H180.646V11.7273H197.07ZM184.374 5.19318H191.938V30.6193C191.938 31.3177 192.045 31.8622 192.258 32.2528C192.471 32.6316 192.767 32.898 193.146 33.0518C193.536 33.2057 193.986 33.2827 194.495 33.2827C194.85 33.2827 195.205 33.2531 195.561 33.1939C195.916 33.1229 196.188 33.0696 196.377 33.0341L197.567 38.6626C197.188 38.781 196.655 38.9171 195.969 39.071C195.282 39.2367 194.448 39.3374 193.465 39.3729C191.642 39.4439 190.044 39.2012 188.671 38.6449C187.31 38.0885 186.251 37.2244 185.493 36.0526C184.735 34.8807 184.363 33.401 184.374 31.6136V5.19318ZM209.774 39.5149C208.034 39.5149 206.483 39.2131 205.122 38.6094C203.761 37.9938 202.684 37.0883 201.89 35.8928C201.109 34.6854 200.719 33.1821 200.719 31.3828C200.719 29.8677 200.997 28.5952 201.553 27.5653C202.109 26.5355 202.867 25.7069 203.826 25.0795C204.785 24.4522 205.874 23.9787 207.093 23.6591C208.324 23.3395 209.614 23.1146 210.964 22.9844C212.55 22.8187 213.828 22.6648 214.799 22.5227C215.769 22.3688 216.474 22.1439 216.912 21.848C217.35 21.5521 217.569 21.1141 217.569 20.5341V20.4276C217.569 19.303 217.214 18.433 216.503 17.8175C215.805 17.2019 214.811 16.8942 213.52 16.8942C212.159 16.8942 211.076 17.196 210.271 17.7997C209.466 18.3916 208.934 19.1373 208.673 20.0369L201.677 19.4688C202.032 17.8116 202.731 16.3793 203.773 15.1719C204.814 13.9527 206.158 13.0175 207.803 12.3665C209.46 11.7036 211.378 11.3722 213.556 11.3722C215.071 11.3722 216.521 11.5497 217.906 11.9048C219.303 12.2599 220.54 12.8104 221.617 13.5561C222.706 14.3018 223.564 15.2607 224.192 16.4325C224.819 17.5926 225.133 18.9834 225.133 20.6051V39H217.959V35.218H217.746C217.308 36.0703 216.722 36.822 215.988 37.473C215.255 38.1122 214.373 38.6153 213.343 38.9822C212.313 39.3374 211.123 39.5149 209.774 39.5149ZM211.94 34.2947C213.053 34.2947 214.035 34.0758 214.888 33.6378C215.74 33.188 216.409 32.5843 216.894 31.8267C217.379 31.0691 217.622 30.2109 217.622 29.2521V26.358C217.385 26.5118 217.06 26.6539 216.645 26.7841C216.243 26.9025 215.787 27.0149 215.278 27.1214C214.769 27.2161 214.26 27.3049 213.751 27.3878C213.242 27.4588 212.781 27.5239 212.366 27.5831C211.479 27.7133 210.703 27.9205 210.04 28.2045C209.377 28.4886 208.863 28.8733 208.496 29.3587C208.129 29.8321 207.945 30.424 207.945 31.1342C207.945 32.1641 208.318 32.9512 209.064 33.4957C209.821 34.0284 210.78 34.2947 211.94 34.2947Z" fill="white"/>
<path d="M0.724432 55.2628V54.0909H8.90625V55.2628H5.47585V65H4.15483V55.2628H0.724432ZM12.0317 60.0781V65H10.7746V54.0909H12.0317V58.0966H12.1382C12.33 57.674 12.6176 57.3384 13.0012 57.0898C13.3882 56.8377 13.9031 56.7116 14.5459 56.7116C15.1034 56.7116 15.5917 56.8235 16.0107 57.0472C16.4298 57.2674 16.7547 57.6065 16.9855 58.0646C17.2199 58.5192 17.3371 59.098 17.3371 59.8011V65H16.08V59.8864C16.08 59.2365 15.9113 58.734 15.574 58.3789C15.2401 58.0202 14.7767 57.8409 14.1837 57.8409C13.7718 57.8409 13.4024 57.9279 13.0757 58.1019C12.7526 58.2759 12.4969 58.5298 12.3087 58.8636C12.124 59.1974 12.0317 59.6023 12.0317 60.0781ZM23.0673 65.1705C22.2789 65.1705 21.5989 64.9964 21.0272 64.6484C20.459 64.2969 20.0204 63.8068 19.7115 63.1783C19.4061 62.5462 19.2534 61.8111 19.2534 60.973C19.2534 60.1349 19.4061 59.3963 19.7115 58.7571C20.0204 58.1143 20.4501 57.6136 21.0005 57.255C21.5545 56.8928 22.2008 56.7116 22.9395 56.7116C23.3656 56.7116 23.7864 56.7827 24.2019 56.9247C24.6174 57.0668 24.9956 57.2976 25.3365 57.6172C25.6774 57.9332 25.949 58.3523 26.1515 58.8743C26.3539 59.3963 26.4551 60.0391 26.4551 60.8026V61.3352H20.1483V60.2486H25.1767C25.1767 59.7869 25.0843 59.375 24.8997 59.0128C24.7186 58.6506 24.4593 58.3647 24.122 58.1552C23.7882 57.9457 23.394 57.8409 22.9395 57.8409C22.4387 57.8409 22.0055 57.9652 21.6397 58.2138C21.2775 58.4588 20.9988 58.7784 20.8034 59.1726C20.6081 59.5668 20.5105 59.9893 20.5105 60.4403V61.1648C20.5105 61.7827 20.617 62.3065 20.8301 62.7362C21.0467 63.1623 21.3468 63.4872 21.7303 63.7109C22.1138 63.9311 22.5595 64.0412 23.0673 64.0412C23.3975 64.0412 23.6958 63.995 23.9622 63.9027C24.2321 63.8068 24.4647 63.6648 24.66 63.4766C24.8553 63.2848 25.0062 63.0469 25.1127 62.7628L26.3272 63.1037C26.1994 63.5156 25.9846 63.8778 25.6827 64.1903C25.3809 64.4993 25.008 64.7408 24.5641 64.9148C24.1202 65.0852 23.6213 65.1705 23.0673 65.1705ZM34.4398 65L31.9469 56.8182H33.2679L35.0364 63.0824H35.1216L36.8688 56.8182H38.2111L39.937 63.0611H40.0222L41.7907 56.8182H43.1117L40.6188 65H39.383L37.5932 58.7145H37.4654L35.6756 65H34.4398ZM47.8192 65.1705C47.0805 65.1705 46.4324 64.9947 45.8749 64.6431C45.3209 64.2915 44.8877 63.7997 44.5752 63.1676C44.2662 62.5355 44.1118 61.7969 44.1118 60.9517C44.1118 60.0994 44.2662 59.3555 44.5752 58.7198C44.8877 58.0842 45.3209 57.5906 45.8749 57.239C46.4324 56.8874 47.0805 56.7116 47.8192 56.7116C48.5578 56.7116 49.2041 56.8874 49.7581 57.239C50.3156 57.5906 50.7488 58.0842 51.0578 58.7198C51.3703 59.3555 51.5265 60.0994 51.5265 60.9517C51.5265 61.7969 51.3703 62.5355 51.0578 63.1676C50.7488 63.7997 50.3156 64.2915 49.7581 64.6431C49.2041 64.9947 48.5578 65.1705 47.8192 65.1705ZM47.8192 64.0412C48.3802 64.0412 48.8419 63.8974 49.2041 63.6097C49.5663 63.3221 49.8344 62.9439 50.0084 62.4751C50.1824 62.0064 50.2694 61.4986 50.2694 60.9517C50.2694 60.4048 50.1824 59.8952 50.0084 59.4229C49.8344 58.9506 49.5663 58.5689 49.2041 58.2777C48.8419 57.9865 48.3802 57.8409 47.8192 57.8409C47.2581 57.8409 46.7964 57.9865 46.4342 58.2777C46.072 58.5689 45.8039 58.9506 45.6299 59.4229C45.4559 59.8952 45.3689 60.4048 45.3689 60.9517C45.3689 61.4986 45.4559 62.0064 45.6299 62.4751C45.8039 62.9439 46.072 63.3221 46.4342 63.6097C46.7964 63.8974 47.2581 64.0412 47.8192 64.0412ZM53.4455 65V56.8182H54.66V58.054H54.7452C54.8944 57.6491 55.1642 57.3207 55.5549 57.0685C55.9455 56.8164 56.3858 56.6903 56.8759 56.6903C56.9682 56.6903 57.0836 56.6921 57.2221 56.6957C57.3606 56.6992 57.4654 56.7045 57.5364 56.7116V57.9901C57.4938 57.9794 57.3961 57.9634 57.2434 57.9421C57.0943 57.9173 56.9363 57.9048 56.7694 57.9048C56.3716 57.9048 56.0165 57.9883 55.704 58.1552C55.3951 58.3185 55.15 58.5458 54.9689 58.837C54.7914 59.1246 54.7026 59.4531 54.7026 59.8224V65H53.4455ZM60.2836 54.0909V65H59.0265V54.0909H60.2836ZM65.6756 65.1705C64.9938 65.1705 64.3919 64.9982 63.8699 64.6538C63.3478 64.3058 62.9395 63.8157 62.6447 63.1836C62.35 62.5479 62.2026 61.7969 62.2026 60.9304C62.2026 60.071 62.35 59.3253 62.6447 58.6932C62.9395 58.0611 63.3496 57.5728 63.8752 57.2283C64.4007 56.8839 65.008 56.7116 65.6969 56.7116C66.2296 56.7116 66.6504 56.8004 66.9593 56.978C67.2718 57.152 67.5098 57.3509 67.6731 57.5746C67.84 57.7947 67.9696 57.9759 68.062 58.1179H68.1685V54.0909H69.4256V65H68.2111V63.7429H68.062C67.9696 63.892 67.8382 64.0803 67.6678 64.3075C67.4973 64.5312 67.2541 64.7319 66.938 64.9094C66.622 65.0835 66.2012 65.1705 65.6756 65.1705ZM65.8461 64.0412C66.3503 64.0412 66.7765 63.9098 67.1245 63.647C67.4725 63.3807 67.737 63.0131 67.9181 62.5444C68.0993 62.0721 68.1898 61.527 68.1898 60.9091C68.1898 60.2983 68.101 59.7638 67.9235 59.3058C67.7459 58.8441 67.4831 58.4854 67.1351 58.2298C66.7871 57.9705 66.3574 57.8409 65.8461 57.8409C65.3134 57.8409 64.8695 57.9776 64.5144 58.2511C64.1628 58.521 63.8983 58.8885 63.7207 59.3537C63.5467 59.8153 63.4597 60.3338 63.4597 60.9091C63.4597 61.4915 63.5485 62.0206 63.726 62.4964C63.9071 62.9687 64.1735 63.3452 64.525 63.6257C64.8801 63.9027 65.3205 64.0412 65.8461 64.0412ZM76.1213 65V56.8182H77.3358V58.0966H77.4423C77.6127 57.6598 77.888 57.3207 78.2679 57.0792C78.6479 56.8342 79.1042 56.7116 79.6369 56.7116C80.1767 56.7116 80.6259 56.8342 80.9846 57.0792C81.3468 57.3207 81.6291 57.6598 81.8315 58.0966H81.9167C82.1262 57.674 82.4405 57.3384 82.8596 57.0898C83.2786 56.8377 83.7811 56.7116 84.367 56.7116C85.0985 56.7116 85.6969 56.9407 86.1621 57.3988C86.6273 57.8533 86.8599 58.5618 86.8599 59.5241V65H85.6028V59.5241C85.6028 58.9205 85.4377 58.489 85.1074 58.2298C84.7772 57.9705 84.3883 57.8409 83.9409 57.8409C83.3656 57.8409 82.9199 58.0149 82.6039 58.3629C82.2878 58.7074 82.1298 59.1442 82.1298 59.6733V65H80.8514V59.3963C80.8514 58.9311 80.7005 58.5565 80.3986 58.2724C80.0968 57.9847 79.7079 57.8409 79.2321 57.8409C78.9054 57.8409 78.6 57.9279 78.3159 58.1019C78.0353 58.2759 77.8081 58.5174 77.6341 58.8263C77.4636 59.1317 77.3784 59.4851 77.3784 59.8864V65H76.1213ZM92.4822 65.1705C91.7436 65.1705 91.0955 64.9947 90.538 64.6431C89.984 64.2915 89.5508 63.7997 89.2383 63.1676C88.9293 62.5355 88.7749 61.7969 88.7749 60.9517C88.7749 60.0994 88.9293 59.3555 89.2383 58.7198C89.5508 58.0842 89.984 57.5906 90.538 57.239C91.0955 56.8874 91.7436 56.7116 92.4822 56.7116C93.2209 56.7116 93.8672 56.8874 94.4212 57.239C94.9787 57.5906 95.4119 58.0842 95.7209 58.7198C96.0334 59.3555 96.1896 60.0994 96.1896 60.9517C96.1896 61.7969 96.0334 62.5355 95.7209 63.1676C95.4119 63.7997 94.9787 64.2915 94.4212 64.6431C93.8672 64.9947 93.2209 65.1705 92.4822 65.1705ZM92.4822 64.0412C93.0433 64.0412 93.505 63.8974 93.8672 63.6097C94.2294 63.3221 94.4975 62.9439 94.6715 62.4751C94.8455 62.0064 94.9325 61.4986 94.9325 60.9517C94.9325 60.4048 94.8455 59.8952 94.6715 59.4229C94.4975 58.9506 94.2294 58.5689 93.8672 58.2777C93.505 57.9865 93.0433 57.8409 92.4822 57.8409C91.9212 57.8409 91.4595 57.9865 91.0973 58.2777C90.7351 58.5689 90.467 58.9506 90.293 59.4229C90.119 59.8952 90.032 60.4048 90.032 60.9517C90.032 61.4986 90.119 62.0064 90.293 62.4751C90.467 62.9439 90.7351 63.3221 91.0973 63.6097C91.4595 63.8974 91.9212 64.0412 92.4822 64.0412ZM104.506 56.8182L101.48 65H100.202L97.1764 56.8182H98.54L100.799 63.3381H100.884L103.142 56.8182H104.506ZM109.303 65.1705C108.514 65.1705 107.834 64.9964 107.263 64.6484C106.694 64.2969 106.256 63.8068 105.947 63.1783C105.641 62.5462 105.489 61.8111 105.489 60.973C105.489 60.1349 105.641 59.3963 105.947 58.7571C106.256 58.1143 106.685 57.6136 107.236 57.255C107.79 56.8928 108.436 56.7116 109.175 56.7116C109.601 56.7116 110.022 56.7827 110.437 56.9247C110.853 57.0668 111.231 57.2976 111.572 57.6172C111.913 57.9332 112.184 58.3523 112.387 58.8743C112.589 59.3963 112.69 60.0391 112.69 60.8026V61.3352H106.384V60.2486H111.412C111.412 59.7869 111.32 59.375 111.135 59.0128C110.954 58.6506 110.695 58.3647 110.357 58.1552C110.024 57.9457 109.629 57.8409 109.175 57.8409C108.674 57.8409 108.241 57.9652 107.875 58.2138C107.513 58.4588 107.234 58.7784 107.039 59.1726C106.843 59.5668 106.746 59.9893 106.746 60.4403V61.1648C106.746 61.7827 106.852 62.3065 107.065 62.7362C107.282 63.1623 107.582 63.4872 107.966 63.7109C108.349 63.9311 108.795 64.0412 109.303 64.0412C109.633 64.0412 109.931 63.995 110.198 63.9027C110.467 63.8068 110.7 63.6648 110.895 63.4766C111.091 63.2848 111.242 63.0469 111.348 62.7628L112.563 63.1037C112.435 63.5156 112.22 63.8778 111.918 64.1903C111.616 64.4993 111.243 64.7408 110.799 64.9148C110.356 65.0852 109.857 65.1705 109.303 65.1705ZM120.398 58.6506L119.269 58.9702C119.198 58.782 119.093 58.5991 118.955 58.4215C118.82 58.2404 118.635 58.0913 118.401 57.9741C118.166 57.8569 117.866 57.7983 117.5 57.7983C117 57.7983 116.582 57.9137 116.249 58.1445C115.918 58.3718 115.753 58.6612 115.753 59.0128C115.753 59.3253 115.867 59.5721 116.094 59.7532C116.321 59.9343 116.677 60.0852 117.16 60.206L118.374 60.5043C119.106 60.6818 119.651 60.9535 120.009 61.3192C120.368 61.6815 120.547 62.1484 120.547 62.7202C120.547 63.1889 120.412 63.608 120.142 63.9773C119.876 64.3466 119.503 64.6378 119.024 64.8509C118.544 65.0639 117.987 65.1705 117.351 65.1705C116.517 65.1705 115.826 64.9893 115.279 64.6271C114.732 64.2649 114.386 63.7358 114.241 63.0398L115.434 62.7415C115.547 63.1818 115.762 63.5121 116.078 63.7322C116.398 63.9524 116.815 64.0625 117.33 64.0625C117.916 64.0625 118.381 63.9382 118.726 63.6896C119.074 63.4375 119.248 63.1357 119.248 62.7841C119.248 62.5 119.148 62.2621 118.949 62.0703C118.75 61.875 118.445 61.7294 118.033 61.6335L116.669 61.3139C115.92 61.1364 115.37 60.8612 115.018 60.4883C114.67 60.1119 114.496 59.6413 114.496 59.0767C114.496 58.6151 114.626 58.2067 114.885 57.8516C115.148 57.4964 115.505 57.2177 115.956 57.0153C116.41 56.8129 116.925 56.7116 117.5 56.7116C118.31 56.7116 118.946 56.8892 119.407 57.2443C119.873 57.5994 120.203 58.0682 120.398 58.6506ZM130.302 56.8182V57.8835H125.891V56.8182H130.302ZM127.212 65V55.6889C127.212 55.2202 127.322 54.8295 127.543 54.517C127.763 54.2045 128.049 53.9702 128.4 53.8139C128.752 53.6577 129.123 53.5795 129.513 53.5795C129.822 53.5795 130.075 53.6044 130.27 53.6541C130.465 53.7038 130.611 53.75 130.707 53.7926L130.344 54.8793C130.281 54.858 130.192 54.8313 130.078 54.7994C129.968 54.7674 129.822 54.7514 129.641 54.7514C129.226 54.7514 128.926 54.8562 128.741 55.0657C128.56 55.2752 128.469 55.5824 128.469 55.9872V65H127.212ZM135.051 65.1705C134.312 65.1705 133.664 64.9947 133.106 64.6431C132.552 64.2915 132.119 63.7997 131.807 63.1676C131.498 62.5355 131.343 61.7969 131.343 60.9517C131.343 60.0994 131.498 59.3555 131.807 58.7198C132.119 58.0842 132.552 57.5906 133.106 57.239C133.664 56.8874 134.312 56.7116 135.051 56.7116C135.789 56.7116 136.436 56.8874 136.99 57.239C137.547 57.5906 137.98 58.0842 138.289 58.7198C138.602 59.3555 138.758 60.0994 138.758 60.9517C138.758 61.7969 138.602 62.5355 138.289 63.1676C137.98 63.7997 137.547 64.2915 136.99 64.6431C136.436 64.9947 135.789 65.1705 135.051 65.1705ZM135.051 64.0412C135.612 64.0412 136.073 63.8974 136.436 63.6097C136.798 63.3221 137.066 62.9439 137.24 62.4751C137.414 62.0064 137.501 61.4986 137.501 60.9517C137.501 60.4048 137.414 59.8952 137.24 59.4229C137.066 58.9506 136.798 58.5689 136.436 58.2777C136.073 57.9865 135.612 57.8409 135.051 57.8409C134.49 57.8409 134.028 57.9865 133.666 58.2777C133.303 58.5689 133.035 58.9506 132.861 59.4229C132.687 59.8952 132.6 60.4048 132.6 60.9517C132.6 61.4986 132.687 62.0064 132.861 62.4751C133.035 62.9439 133.303 63.3221 133.666 63.6097C134.028 63.8974 134.49 64.0412 135.051 64.0412ZM140.677 65V56.8182H141.891V58.054H141.977C142.126 57.6491 142.396 57.3207 142.786 57.0685C143.177 56.8164 143.617 56.6903 144.107 56.6903C144.2 56.6903 144.315 56.6921 144.454 56.6957C144.592 56.6992 144.697 56.7045 144.768 56.7116V57.9901C144.725 57.9794 144.628 57.9634 144.475 57.9421C144.326 57.9173 144.168 57.9048 144.001 57.9048C143.603 57.9048 143.248 57.9883 142.935 58.1552C142.627 58.3185 142.381 58.5458 142.2 58.837C142.023 59.1246 141.934 59.4531 141.934 59.8224V65H140.677ZM148.244 65L145.751 56.8182H147.072L148.84 63.0824H148.925L150.672 56.8182H152.015L153.741 63.0611H153.826L155.594 56.8182H156.915L154.422 65H153.187L151.397 58.7145H151.269L149.479 65H148.244ZM160.985 65.1918C160.467 65.1918 159.996 65.0941 159.573 64.8988C159.151 64.6999 158.815 64.4141 158.567 64.0412C158.318 63.6648 158.194 63.2102 158.194 62.6776C158.194 62.2088 158.286 61.8288 158.471 61.5376C158.655 61.2429 158.902 61.0121 159.211 60.8452C159.52 60.6783 159.861 60.554 160.234 60.4723C160.61 60.3871 160.989 60.3196 161.369 60.2699C161.866 60.206 162.269 60.158 162.578 60.1261C162.89 60.0906 163.117 60.032 163.259 59.9503C163.405 59.8686 163.478 59.7266 163.478 59.5241V59.4815C163.478 58.956 163.334 58.5476 163.046 58.2564C162.762 57.9652 162.331 57.8196 161.752 57.8196C161.152 57.8196 160.681 57.951 160.34 58.2138C160 58.4766 159.76 58.7571 159.621 59.0554L158.428 58.6293C158.641 58.1321 158.925 57.745 159.28 57.468C159.639 57.1875 160.03 56.9922 160.452 56.8821C160.878 56.7685 161.297 56.7116 161.709 56.7116C161.972 56.7116 162.274 56.7436 162.615 56.8075C162.959 56.8679 163.291 56.994 163.611 57.1857C163.934 57.3775 164.202 57.6669 164.415 58.054C164.628 58.4411 164.735 58.9595 164.735 59.6094V65H163.478V63.892H163.414C163.329 64.0696 163.187 64.2596 162.988 64.462C162.789 64.6644 162.524 64.8366 162.194 64.9787C161.864 65.1207 161.461 65.1918 160.985 65.1918ZM161.177 64.0625C161.674 64.0625 162.093 63.9648 162.434 63.7695C162.778 63.5742 163.038 63.3221 163.212 63.0131C163.389 62.7042 163.478 62.3793 163.478 62.0384V60.8878C163.425 60.9517 163.307 61.0103 163.126 61.0636C162.949 61.1133 162.743 61.1577 162.508 61.1967C162.278 61.2322 162.052 61.2642 161.832 61.2926C161.615 61.3175 161.44 61.3388 161.305 61.3565C160.978 61.3991 160.672 61.4684 160.388 61.5643C160.108 61.6566 159.881 61.7969 159.707 61.9851C159.536 62.1697 159.451 62.4219 159.451 62.7415C159.451 63.1783 159.612 63.5085 159.936 63.7322C160.262 63.9524 160.676 64.0625 161.177 64.0625ZM167.029 65V56.8182H168.244V58.054H168.329C168.478 57.6491 168.748 57.3207 169.139 57.0685C169.529 56.8164 169.97 56.6903 170.46 56.6903C170.552 56.6903 170.668 56.6921 170.806 56.6957C170.945 56.6992 171.049 56.7045 171.12 56.7116V57.9901C171.078 57.9794 170.98 57.9634 170.827 57.9421C170.678 57.9173 170.52 57.9048 170.353 57.9048C169.956 57.9048 169.6 57.9883 169.288 58.1552C168.979 58.3185 168.734 58.5458 168.553 58.837C168.375 59.1246 168.287 59.4531 168.287 59.8224V65H167.029ZM175.451 65.1705C174.769 65.1705 174.167 64.9982 173.645 64.6538C173.123 64.3058 172.715 63.8157 172.42 63.1836C172.125 62.5479 171.978 61.7969 171.978 60.9304C171.978 60.071 172.125 59.3253 172.42 58.6932C172.715 58.0611 173.125 57.5728 173.651 57.2283C174.176 56.8839 174.783 56.7116 175.472 56.7116C176.005 56.7116 176.426 56.8004 176.735 56.978C177.047 57.152 177.285 57.3509 177.449 57.5746C177.615 57.7947 177.745 57.9759 177.837 58.1179H177.944V54.0909H179.201V65H177.987V63.7429H177.837C177.745 63.892 177.614 64.0803 177.443 64.3075C177.273 64.5312 177.029 64.7319 176.713 64.9094C176.397 65.0835 175.977 65.1705 175.451 65.1705ZM175.621 64.0412C176.126 64.0412 176.552 63.9098 176.9 63.647C177.248 63.3807 177.512 63.0131 177.694 62.5444C177.875 62.0721 177.965 61.527 177.965 60.9091C177.965 60.2983 177.876 59.7638 177.699 59.3058C177.521 58.8441 177.259 58.4854 176.911 58.2298C176.563 57.9705 176.133 57.8409 175.621 57.8409C175.089 57.8409 174.645 57.9776 174.29 58.2511C173.938 58.521 173.674 58.8885 173.496 59.3537C173.322 59.8153 173.235 60.3338 173.235 60.9091C173.235 61.4915 173.324 62.0206 173.501 62.4964C173.683 62.9687 173.949 63.3452 174.3 63.6257C174.656 63.9027 175.096 64.0412 175.621 64.0412ZM183.553 63.5085L183.468 64.0838C183.407 64.4886 183.315 64.9219 183.191 65.3835C183.07 65.8452 182.944 66.2802 182.812 66.6886C182.681 67.0969 182.573 67.4219 182.488 67.6634H181.529C181.575 67.4361 181.635 67.136 181.71 66.7631C181.784 66.3903 181.859 65.973 181.934 65.5114C182.012 65.0533 182.076 64.5845 182.125 64.1051L182.189 63.5085H183.553ZM195.896 58.6506L194.767 58.9702C194.696 58.782 194.591 58.5991 194.453 58.4215C194.318 58.2404 194.133 58.0913 193.899 57.9741C193.664 57.8569 193.364 57.7983 192.998 57.7983C192.498 57.7983 192.081 57.9137 191.747 58.1445C191.416 58.3718 191.251 58.6612 191.251 59.0128C191.251 59.3253 191.365 59.5721 191.592 59.7532C191.82 59.9343 192.175 60.0852 192.658 60.206L193.872 60.5043C194.604 60.6818 195.149 60.9535 195.507 61.3192C195.866 61.6815 196.045 62.1484 196.045 62.7202C196.045 63.1889 195.91 63.608 195.641 63.9773C195.374 64.3466 195.001 64.6378 194.522 64.8509C194.043 65.0639 193.485 65.1705 192.849 65.1705C192.015 65.1705 191.324 64.9893 190.777 64.6271C190.23 64.2649 189.884 63.7358 189.739 63.0398L190.932 62.7415C191.045 63.1818 191.26 63.5121 191.576 63.7322C191.896 63.9524 192.313 64.0625 192.828 64.0625C193.414 64.0625 193.879 63.9382 194.224 63.6896C194.572 63.4375 194.746 63.1357 194.746 62.7841C194.746 62.5 194.646 62.2621 194.447 62.0703C194.248 61.875 193.943 61.7294 193.531 61.6335L192.168 61.3139C191.418 61.1364 190.868 60.8612 190.516 60.4883C190.168 60.1119 189.994 59.6413 189.994 59.0767C189.994 58.6151 190.124 58.2067 190.383 57.8516C190.646 57.4964 191.003 57.2177 191.454 57.0153C191.908 56.8129 192.423 56.7116 192.998 56.7116C193.808 56.7116 194.444 56.8892 194.905 57.2443C195.371 57.5994 195.701 58.0682 195.896 58.6506ZM201.262 65.1705C200.523 65.1705 199.875 64.9947 199.317 64.6431C198.763 64.2915 198.33 63.7997 198.018 63.1676C197.709 62.5355 197.554 61.7969 197.554 60.9517C197.554 60.0994 197.709 59.3555 198.018 58.7198C198.33 58.0842 198.763 57.5906 199.317 57.239C199.875 56.8874 200.523 56.7116 201.262 56.7116C202 56.7116 202.646 56.8874 203.2 57.239C203.758 57.5906 204.191 58.0842 204.5 58.7198C204.813 59.3555 204.969 60.0994 204.969 60.9517C204.969 61.7969 204.813 62.5355 204.5 63.1676C204.191 63.7997 203.758 64.2915 203.2 64.6431C202.646 64.9947 202 65.1705 201.262 65.1705ZM201.262 64.0412C201.823 64.0412 202.284 63.8974 202.646 63.6097C203.009 63.3221 203.277 62.9439 203.451 62.4751C203.625 62.0064 203.712 61.4986 203.712 60.9517C203.712 60.4048 203.625 59.8952 203.451 59.4229C203.277 58.9506 203.009 58.5689 202.646 58.2777C202.284 57.9865 201.823 57.8409 201.262 57.8409C200.7 57.8409 200.239 57.9865 199.877 58.2777C199.514 58.5689 199.246 58.9506 199.072 59.4229C198.898 59.8952 198.811 60.4048 198.811 60.9517C198.811 61.4986 198.898 62.0064 199.072 62.4751C199.246 62.9439 199.514 63.3221 199.877 63.6097C200.239 63.8974 200.7 64.0412 201.262 64.0412ZM214.196 65.1705C213.514 65.1705 212.912 64.9982 212.39 64.6538C211.868 64.3058 211.46 63.8157 211.165 63.1836C210.87 62.5479 210.723 61.7969 210.723 60.9304C210.723 60.071 210.87 59.3253 211.165 58.6932C211.46 58.0611 211.87 57.5728 212.396 57.2283C212.921 56.8839 213.528 56.7116 214.217 56.7116C214.75 56.7116 215.171 56.8004 215.48 56.978C215.792 57.152 216.03 57.3509 216.194 57.5746C216.361 57.7947 216.49 57.9759 216.582 58.1179H216.689V54.0909H217.946V65H216.732V63.7429H216.582C216.49 63.892 216.359 64.0803 216.188 64.3075C216.018 64.5312 215.775 64.7319 215.459 64.9094C215.142 65.0835 214.722 65.1705 214.196 65.1705ZM214.367 64.0412C214.871 64.0412 215.297 63.9098 215.645 63.647C215.993 63.3807 216.258 63.0131 216.439 62.5444C216.62 62.0721 216.71 61.527 216.71 60.9091C216.71 60.2983 216.622 59.7638 216.444 59.3058C216.266 58.8441 216.004 58.4854 215.656 58.2298C215.308 57.9705 214.878 57.8409 214.367 57.8409C213.834 57.8409 213.39 57.9776 213.035 58.2511C212.683 58.521 212.419 58.8885 212.241 59.3537C212.067 59.8153 211.98 60.3338 211.98 60.9091C211.98 61.4915 212.069 62.0206 212.247 62.4964C212.428 62.9687 212.694 63.3452 213.046 63.6257C213.401 63.9027 213.841 64.0412 214.367 64.0412ZM223.747 65.1705C223.008 65.1705 222.36 64.9947 221.803 64.6431C221.249 64.2915 220.815 63.7997 220.503 63.1676C220.194 62.5355 220.04 61.7969 220.04 60.9517C220.04 60.0994 220.194 59.3555 220.503 58.7198C220.815 58.0842 221.249 57.5906 221.803 57.239C222.36 56.8874 223.008 56.7116 223.747 56.7116C224.486 56.7116 225.132 56.8874 225.686 57.239C226.243 57.5906 226.677 58.0842 226.986 58.7198C227.298 59.3555 227.454 60.0994 227.454 60.9517C227.454 61.7969 227.298 62.5355 226.986 63.1676C226.677 63.7997 226.243 64.2915 225.686 64.6431C225.132 64.9947 224.486 65.1705 223.747 65.1705ZM223.747 64.0412C224.308 64.0412 224.77 63.8974 225.132 63.6097C225.494 63.3221 225.762 62.9439 225.936 62.4751C226.11 62.0064 226.197 61.4986 226.197 60.9517C226.197 60.4048 226.11 59.8952 225.936 59.4229C225.762 58.9506 225.494 58.5689 225.132 58.2777C224.77 57.9865 224.308 57.8409 223.747 57.8409C223.186 57.8409 222.724 57.9865 222.362 58.2777C222 58.5689 221.732 58.9506 221.558 59.4229C221.384 59.8952 221.297 60.4048 221.297 60.9517C221.297 61.4986 221.384 62.0064 221.558 62.4751C221.732 62.9439 222 63.3221 222.362 63.6097C222.724 63.8974 223.186 64.0412 223.747 64.0412ZM235.446 65L232.953 56.8182H234.274L236.042 63.0824H236.127L237.875 56.8182H239.217L240.943 63.0611H241.028L242.797 56.8182H244.118L241.625 65H240.389L238.599 58.7145H238.471L236.681 65H235.446ZM248.932 65.1705C248.143 65.1705 247.463 64.9964 246.891 64.6484C246.323 64.2969 245.885 63.8068 245.576 63.1783C245.27 62.5462 245.118 61.8111 245.118 60.973C245.118 60.1349 245.27 59.3963 245.576 58.7571C245.885 58.1143 246.314 57.6136 246.865 57.255C247.419 56.8928 248.065 56.7116 248.804 56.7116C249.23 56.7116 249.651 56.7827 250.066 56.9247C250.482 57.0668 250.86 57.2976 251.201 57.6172C251.542 57.9332 251.813 58.3523 252.016 58.8743C252.218 59.3963 252.319 60.0391 252.319 60.8026V61.3352H246.013V60.2486H251.041C251.041 59.7869 250.949 59.375 250.764 59.0128C250.583 58.6506 250.324 58.3647 249.986 58.1552C249.652 57.9457 249.258 57.8409 248.804 57.8409C248.303 57.8409 247.87 57.9652 247.504 58.2138C247.142 58.4588 246.863 58.7784 246.668 59.1726C246.472 59.5668 246.375 59.9893 246.375 60.4403V61.1648C246.375 61.7827 246.481 62.3065 246.694 62.7362C246.911 63.1623 247.211 63.4872 247.595 63.7109C247.978 63.9311 248.424 64.0412 248.932 64.0412C249.262 64.0412 249.56 63.995 249.826 63.9027C250.096 63.8068 250.329 63.6648 250.524 63.4766C250.72 63.2848 250.87 63.0469 250.977 62.7628L252.191 63.1037C252.064 63.5156 251.849 63.8778 251.547 64.1903C251.245 64.4993 250.872 64.7408 250.428 64.9148C249.984 65.0852 249.486 65.1705 248.932 65.1705ZM255.148 65.0852C254.885 65.0852 254.66 64.9911 254.471 64.8029C254.283 64.6147 254.189 64.3892 254.189 64.1264C254.189 63.8636 254.283 63.6381 254.471 63.4499C254.66 63.2617 254.885 63.1676 255.148 63.1676C255.411 63.1676 255.636 63.2617 255.824 63.4499C256.013 63.6381 256.107 63.8636 256.107 64.1264C256.107 64.3004 256.062 64.4602 255.973 64.6058C255.888 64.7514 255.773 64.8686 255.627 64.9574C255.485 65.0426 255.325 65.0852 255.148 65.0852Z" fill="white"/>
</svg>
